<?xml version="1.0" encoding="UTF-8"?>
<svg width="170px" height="228px" viewBox="0 0 170 228" version="1.1" xmlns="http://www.w3.org/2000/svg" xmlns:xlink="http://www.w3.org/1999/xlink">
    <!-- Generator: Sketch 42 (36781) - http://www.bohemiancoding.com/sketch -->
    <title>Group 4</title>
    <desc>Created with Sketch.</desc>
    <defs></defs>
    <g id="Page-1" stroke="none" stroke-width="1" fill="none" fill-rule="evenodd">
        <g id="Splash-Website" transform="translate(-31.000000, -31.000000)" fill="#FFFFFF">
            <g id="Group-4" transform="translate(31.000000, 31.000000)">
                <path d="M166.460695,110.851797 C164.756599,110.851797 163.373565,112.234872 163.373565,113.939017 L163.373565,123.200679 L123.335548,123.200679 L123.257341,117.347309 C140.479409,105.270102 150.736913,85.6230311 150.736913,64.5434896 C150.736913,28.9581282 121.779635,-4.26325641e-14 86.1953171,-4.26325641e-14 C50.6109996,-4.26325641e-14 21.653721,28.9581282 21.653721,64.5434896 C21.653721,85.52424 31.8988761,105.253637 49.0550861,117.330844 C49.0838993,117.347309 49.100364,117.347309 49.1332934,117.363774 L49.0550861,123.200679 L9.01706919,123.200679 L9.01706919,113.939017 C9.01706919,112.234872 7.63403499,110.851797 5.92993928,110.851797 C4.22584357,110.851797 2.84280936,112.234872 2.84280936,113.939017 L2.84280936,129.37512 L55.1470225,129.37512 L55.3240179,115.980699 C55.3404826,114.663485 54.5213641,113.552086 53.377068,113.086945 C53.1712593,112.782339 52.9284051,112.490082 52.6073436,112.267802 C37.0893705,101.347274 27.8279808,83.5154886 27.8279808,64.5270244 C27.8279808,32.3376055 54.0068425,6.1579758 86.1953171,6.1579758 C118.383792,6.1579758 144.562653,32.3376055 144.562653,64.5270244 C144.562653,83.9518157 134.963737,102.022346 118.8695,112.893479 C118.560787,113.086945 118.338514,113.35862 118.128589,113.634412 C117.470001,114.210693 117.033687,115.029835 117.050152,115.964234 L117.227147,129.358655 L169.547825,129.37512 L169.547825,113.939017 C169.547825,112.234872 168.164791,110.851797 166.460695,110.851797 Z" id="Page-1"></path>
                <g id="Page-1" transform="translate(39.799331, 12.508728)">
                    <path d="M85.4174834,56.5001596 C84.1750748,54.9577257 82.7930698,53.4152918 81.3024897,51.8790524 C82.7930698,50.342813 84.1688706,48.7941845 85.4174834,47.2579451 C92.2933851,38.7466833 94.4261089,31.2079601 91.4278869,26.0247007 C89.1493624,22.0865387 84.2107495,20.005182 77.1533724,20.005182 C73.2198542,20.005182 68.7310521,20.6587032 63.9258315,21.868182 C60.1210521,8.65683292 53.8268025,0.162605985 46.5739904,0.162605985 C39.314974,0.162605985 33.0253775,8.65683292 29.2205982,21.868182 C24.4107243,20.6587032 19.9265755,20.005182 15.988404,20.005182 C8.92327156,20.005182 3.99241406,22.0865387 1.71388947,26.0247007 C-1.28588355,31.2079601 0.853044575,38.7513292 7.724293,47.2579451 C8.97290586,48.8003791 10.3533598,50.3490075 11.8501442,51.8976359 C2.29554142,61.7871771 -1.91561873,71.4661047 1.70768518,77.7395985 C3.98620977,81.6777606 8.91706727,83.7591172 15.9821997,83.7591172 C19.9141669,83.7591172 24.40452,83.105596 29.2143939,81.8961172 C33.01452,95.1074663 39.3087697,103.600145 46.5615818,103.600145 C53.8205982,103.600145 60.1086436,95.1074663 63.9134229,81.8961172 C68.7248479,83.105596 73.2152009,83.7591172 77.1471682,83.7591172 C84.2045452,83.7591172 89.1431581,81.6777606 91.4216827,77.7395985 C94.4261089,72.5563392 92.2933851,65.0114214 85.4174834,56.5001596 Z M77.1533724,23.8519751 C81.0605225,23.8519751 86.1325276,24.5596983 88.0884292,27.9480973 C90.2040912,31.6013117 88.1318592,37.760207 82.4177104,44.8374389 C81.2482022,46.2838579 79.9577104,47.7287282 78.5586436,49.1813416 C75.2083283,46.0298828 71.3849361,42.9388204 67.2094506,39.985586 C66.7317205,34.8317506 65.943776,29.9922868 64.8952514,25.5833416 C69.3607873,24.4574888 73.5238642,23.8519751 77.1533724,23.8519751 Z M55.2320736,66.8573865 C52.3532842,68.514419 49.4512287,70.0336234 46.5739904,71.4057082 C43.6889967,70.0274289 40.7931455,68.514419 37.9097028,66.851192 C35.0247091,65.1879651 32.2498415,63.4395636 29.6145704,61.6369601 C29.3788075,58.5211197 29.2516196,55.2674514 29.2516196,51.8728579 C29.2516196,48.4736185 29.3850118,45.212207 29.6145704,42.0979152 C32.2017583,40.3371247 34.9642173,38.5949177 37.9097028,36.8945237 C40.7931455,35.2312968 43.6889967,33.7182868 46.5739904,32.346202 C49.457433,33.7182868 52.3532842,35.2374913 55.2382779,36.8945237 C58.1217205,38.5577506 60.8965881,40.3061521 63.5380635,42.1087556 C63.7753775,45.224596 63.9025654,48.479813 63.9025654,51.8728579 C63.9025654,55.2674514 63.7753775,58.5211197 63.5380635,61.6369601 C60.8903838,63.4519526 58.1155162,65.1941596 55.2320736,66.8573865 Z M63.0541291,66.5848279 C62.599665,70.3836135 61.9807873,73.9222294 61.2238642,77.1650574 C57.9588579,76.1739352 54.5651127,74.9396783 51.1124267,73.4638354 C53.1350244,72.4339975 55.1529689,71.3515062 57.1585049,70.1900349 C59.1764494,69.0285636 61.1447596,67.8252793 63.0541291,66.5848279 Z M42.035554,73.4684813 C38.581317,74.9396783 35.1891228,76.178581 31.9225654,77.1712519 C31.1656423,73.9284239 30.5483157,70.389808 30.0938516,66.5910224 C32.00167,67.8252793 33.965327,69.0347581 35.9832716,70.1962294 C37.9888075,71.3515062 40.0114052,72.440192 42.035554,73.4684813 Z M25.5740282,58.7456708 C22.5804595,56.5001596 19.8055919,54.189606 17.3099172,51.8480798 C19.7451001,49.5746933 22.5013548,47.2687855 25.5740282,44.9768155 C25.4530446,47.2269726 25.3863485,49.5251372 25.3863485,51.8728579 C25.3910017,54.214384 25.4576978,56.5001596 25.5740282,58.7456708 Z M30.0876473,37.1732768 C30.5421114,33.3744913 31.159438,29.8358753 31.9179122,26.5930474 C35.1829185,27.5795237 38.5751127,28.8184264 42.0293497,30.2896234 C40.0052009,31.3179127 37.9888075,32.4065985 35.9770673,33.5618753 C33.9467142,34.7357357 31.9830572,35.9452145 30.0876473,37.1732768 Z M51.1124267,30.2896234 C54.5651127,28.8184264 57.9588579,27.5795237 61.2238642,26.5868529 C61.974583,29.8296808 62.599665,33.3682968 63.0541291,37.1670823 C61.1447596,35.9328254 59.1826537,34.7233466 57.1647091,33.5618753 C55.1529689,32.4065985 53.1288201,31.3179127 51.1124267,30.2896234 Z M67.5739525,45.0124339 C70.5551127,47.2517506 73.3175717,49.5499152 75.8070421,51.8790524 C73.3175717,54.2081895 70.5551127,56.5125486 67.5739525,58.7456708 C67.6887318,56.5001596 67.7554279,54.214384 67.7554279,51.8790524 C67.7554279,49.5437207 67.6887318,47.2579451 67.5739525,45.0124339 Z M46.5739904,4.01714214 C51.6211782,4.01714214 56.8855162,11.027783 60.2668529,22.8778878 C55.8618088,24.2035137 51.2442678,25.9643042 46.5739904,28.1045087 C41.9021619,25.9643042 37.2846209,24.2035137 32.8811278,22.8778878 C36.2609134,11.027783 41.5205982,4.01714214 46.5739904,4.01714214 Z M5.05179615,27.9480973 C7.00924886,24.5658928 12.0797028,23.8519751 15.988404,23.8519751 C19.6179122,23.8519751 23.779438,24.4574888 28.244974,25.5833416 C27.1980004,29.9860923 26.4162602,34.8255561 25.9307747,39.985586 C21.6963485,42.9806334 17.8915692,46.0778903 14.5893371,49.1875362 C13.1825149,47.7349227 11.8920231,46.2838579 10.7225149,44.8374389 C5.00991721,37.760207 2.94388947,31.6013117 5.05179615,27.9480973 Z M15.988404,79.9061297 C12.0797028,79.9061297 7.00924886,79.1984065 5.05179615,75.816202 C2.53130435,71.4490698 5.97933713,63.4023965 14.5583157,54.5535337 C17.9210395,57.711187 21.750636,60.8192843 25.936979,63.7787132 C26.4162602,68.9325486 27.2026537,73.7720125 28.2511782,78.1809576 C23.779438,79.2944214 19.6179122,79.9061297 15.988404,79.9061297 Z M46.5739904,99.7409626 C41.5268025,99.7409626 36.2609134,92.7303217 32.8811278,80.8848628 C37.2846209,79.5607855 41.9021619,77.799995 46.5739904,75.6582419 C51.2442678,77.799995 55.8618088,79.5607855 60.2668529,80.880217 C56.8793119,92.7303217 51.6211782,99.7409626 46.5739904,99.7409626 Z M88.0884292,75.8100075 C86.1325276,79.192212 81.0605225,79.9061297 77.1533724,79.9061297 C73.5238642,79.9061297 69.3607873,79.300616 64.8952514,78.1747631 C65.943776,73.765818 66.7255162,68.9263541 67.2094506,63.7725187 C71.3849361,60.8192843 75.2083283,57.7220274 78.5586436,54.5767631 C79.9577104,56.023182 81.2482022,57.4742469 82.4177104,58.9206658 C88.1380635,65.9978978 90.2040912,72.156793 88.0884292,75.8100075 Z" id="Fill-1"></path>
                    <path d="M46.5739904,37.2460623 C38.4913548,37.2460623 31.9179122,43.8091496 31.9179122,51.8790524 C31.9179122,59.9489551 38.4913548,66.5182369 46.5739904,66.5182369 C54.6566259,66.5182369 61.2300685,59.9551496 61.2300685,51.8790524 C61.2300685,43.8091496 54.6566259,37.2460623 46.5739904,37.2460623 Z M46.5739904,62.6652494 C40.6178743,62.6652494 35.7707747,57.8257855 35.7707747,51.8790524 C35.7707747,45.9323192 40.6178743,41.0928554 46.5739904,41.0928554 C52.5301064,41.0928554 57.377206,45.9323192 57.377206,51.8790524 C57.3710017,57.8257855 52.5301064,62.6652494 46.5739904,62.6652494 Z" id="Fill-2"></path>
                </g>
                <path d="M48.6905017,187.825377 C41.4765526,187.825377 36.4476731,185.883132 33.6037124,181.998584 C30.7597517,178.114035 29.3377926,171.975154 29.3377926,163.581756 C29.3377926,155.188357 30.782873,148.956988 33.6730769,144.887461 C36.5632809,140.817935 41.5690391,138.783202 48.6905017,138.783202 C55.8119643,138.783202 60.8061618,140.806374 63.6732441,144.852778 C66.5403265,148.899182 67.9738462,155.130551 67.9738462,163.547072 C67.9738462,169.096427 67.3842534,173.582088 66.2050502,177.00419 C65.0258469,180.426291 63.0952197,183.039073 60.4131104,184.842613 L66.2397324,194.207102 L59.0951839,197.536698 L52.9217391,187.409177 C52.0431171,187.686645 50.6327187,187.825377 48.6905017,187.825377 Z M48.6905017,181.096818 C53.129855,181.096818 56.1240614,179.767305 57.6732107,177.108239 C59.22236,174.449174 59.9969231,169.951952 59.9969231,163.616439 C59.9969231,157.280926 59.1992387,152.679655 57.6038462,149.812489 C56.0084536,146.945322 53.0373684,145.511761 48.6905017,145.511761 C44.3436349,145.511761 41.3609891,146.945322 39.7424749,149.812489 C38.1239607,152.679655 37.3147157,157.257804 37.3147157,163.547072 C37.3147157,169.836341 38.1008394,174.333563 39.6731104,177.038873 C41.2453813,179.744183 44.2511484,181.096818 48.6905017,181.096818 Z M84.6213378,170.136898 L84.6213378,187.062344 L76.9218729,187.062344 L76.9218729,139.546234 L94.9566555,139.546234 C105.685093,139.546234 111.049231,144.586822 111.049231,154.66815 C111.049231,161.419864 108.459647,165.998013 103.280401,168.402733 L111.118595,187.062344 L102.65612,187.062344 L95.7890301,170.136898 L84.6213378,170.136898 Z M103.141672,154.737516 C103.141672,149.049428 100.413361,146.205426 94.9566555,146.205426 L84.6213378,146.205426 L84.6213378,163.477706 L95.0953846,163.477706 C97.8699804,163.477706 99.9046535,162.679998 101.199465,161.084559 C102.494276,159.489119 103.141672,157.37346 103.141672,154.737516 Z M146.425151,187.062344 L119.789164,187.062344 L119.789164,139.546234 L127.488629,139.546234 L127.488629,180.195052 L146.425151,180.195052 L146.425151,187.062344 Z" id="QRL"></path>
                <path d="M0.162608696,216.795591 L0.162608696,215.932489 L6.4167893,215.932489 L6.4167893,216.795591 L3.77752508,216.795591 L3.77752508,224.588529 L2.82688963,224.588529 L2.82688963,216.795591 L0.162608696,216.795591 Z M8.41812709,224.588529 L7.48,224.588529 L7.48,215.607262 L8.41812709,215.607262 L8.41812709,218.684409 C9.08524302,218.36752 9.72733248,218.209077 10.3444147,218.209077 C11.1783096,218.209077 11.7390956,218.434232 12.0267893,218.884549 C12.314483,219.334865 12.4583278,220.135416 12.4583278,221.286224 L12.4583278,224.588529 L11.5202007,224.588529 L11.5202007,221.311242 C11.5202007,220.443966 11.4347277,219.849807 11.2637793,219.528748 C11.0928308,219.207689 10.7321767,219.047162 10.181806,219.047162 C9.65645222,219.047162 9.14778395,219.143061 8.65578595,219.334863 L8.41812709,219.422424 L8.41812709,224.588529 Z M18.4498328,223.812988 L18.8125753,223.775461 L18.837592,224.513476 C17.8869518,224.646903 17.0739164,224.713616 16.3984615,224.713616 C15.497855,224.713616 14.859935,224.45302 14.4846823,223.93182 C14.1094296,223.410621 13.921806,222.599646 13.921806,221.498873 C13.921806,219.305665 14.7932131,218.209077 16.5360535,218.209077 C17.3782874,218.209077 18.0078686,218.444656 18.4248161,218.91582 C18.8417635,219.386985 19.0502341,220.127077 19.0502341,221.13612 L19.0002007,221.849117 L14.8724415,221.849117 C14.8724415,222.54127 14.9975238,223.054123 15.2476923,223.387691 C15.4978608,223.721259 15.9335643,223.88804 16.5548161,223.88804 C17.1760678,223.88804 17.8077337,223.863023 18.4498328,223.812988 Z M18.112107,221.098594 C18.112107,220.331388 17.9891094,219.789348 17.7431104,219.472459 C17.4971114,219.155569 17.0968478,218.997127 16.5423077,218.997127 C15.9877676,218.997127 15.5708264,219.163909 15.2914716,219.497476 C15.0121168,219.831044 14.8682721,220.364744 14.8599331,221.098594 L18.112107,221.098594 Z M26.492709,224.713616 C25.2001719,224.713616 24.3079177,224.359206 23.8159197,223.650374 C23.3239217,222.941543 23.0779264,221.826192 23.0779264,220.304289 C23.0779264,218.782386 23.3280911,217.652443 23.8284281,216.914424 C24.328765,216.176405 25.2168498,215.807401 26.492709,215.807401 C27.7685683,215.807401 28.6587377,216.174321 29.1632441,216.90817 C29.6677506,217.642019 29.92,218.771962 29.92,220.298035 C29.92,221.357113 29.8115953,222.205613 29.5947826,222.843561 C29.3779699,223.481509 29.0068923,223.954752 28.4815385,224.263302 L29.5447492,225.976998 L28.6441472,226.402294 L27.5434114,224.601037 C27.268226,224.67609 26.9179954,224.713616 26.492709,224.713616 Z M24.5664214,223.031192 C24.8999794,223.585748 25.5441535,223.863022 26.4989632,223.863022 C27.4537729,223.863022 28.0958623,223.594087 28.4252508,223.056209 C28.7546393,222.518331 28.9193311,221.609373 28.9193311,220.329307 C28.9193311,219.04924 28.7483852,218.11735 28.4064883,217.533606 C28.0645914,216.949862 27.4245866,216.657995 26.4864548,216.657995 C25.5483231,216.657995 24.910403,216.947778 24.5726756,217.527352 C24.2349481,218.106926 24.066087,219.030477 24.066087,220.298035 C24.066087,221.565592 24.2328634,222.476636 24.5664214,223.031192 Z M35.4236789,218.334165 L36.361806,218.334165 L36.361806,224.588529 L35.4236789,224.588529 L35.4236789,224.150723 C34.7982577,224.525987 34.1811848,224.713616 33.5724415,224.713616 C32.7218687,224.713616 32.1569133,224.492631 31.8775585,224.050653 C31.5982037,223.608676 31.4585284,222.791447 31.4585284,221.598943 L31.4585284,218.334165 L32.3966555,218.334165 L32.3966555,221.586434 C32.3966555,222.495406 32.4758743,223.104158 32.6343144,223.412708 C32.7927544,223.721258 33.1513239,223.875531 33.7100334,223.875531 C33.9852188,223.875531 34.2645694,223.835921 34.5480936,223.756698 C34.8316179,223.677476 35.0484273,223.60034 35.1985284,223.525287 L35.4236789,223.412708 L35.4236789,218.334165 Z M42.5784615,220.222983 L42.5784615,223.425217 C42.6034784,223.733767 42.8453043,223.917227 43.3039465,223.975601 L43.2664214,224.713616 C42.6076444,224.713616 42.1114844,224.546835 41.7779264,224.213267 C41.027421,224.546835 40.2769268,224.713616 39.5264214,224.713616 C38.9510339,224.713616 38.5132456,224.551004 38.2130435,224.225776 C37.9128413,223.900547 37.7627425,223.433559 37.7627425,222.824798 C37.7627425,222.216037 37.9170107,221.767812 38.2255518,221.48011 C38.534093,221.192408 39.0177448,221.015202 39.6765217,220.948489 L41.6403344,220.760858 L41.6403344,220.222983 C41.6403344,219.797684 41.5486074,219.493308 41.3651505,219.309845 C41.1816936,219.126383 40.9315289,219.034653 40.6146488,219.034653 C39.9475329,219.034653 39.2554105,219.076349 38.5382609,219.159741 L38.1505017,219.197267 L38.1129766,218.484269 C39.030261,218.300807 39.8432963,218.209077 40.552107,218.209077 C41.2609177,218.209077 41.7758401,218.371689 42.0968896,218.696918 C42.4179392,219.022146 42.5784615,219.530829 42.5784615,220.222983 Z M38.7258863,222.774763 C38.7258863,223.541969 39.0427616,223.925566 39.6765217,223.925566 C40.2435703,223.925566 40.8022715,223.829667 41.3526421,223.637865 L41.6403344,223.537796 L41.6403344,221.473855 L39.789097,221.648978 C39.4138443,221.682334 39.1428325,221.790742 38.9760535,221.974204 C38.8092745,222.157667 38.7258863,222.424517 38.7258863,222.774763 Z M45.3678261,224.588529 L44.429699,224.588529 L44.429699,218.334165 L45.3553177,218.334165 L45.3553177,218.77197 C46.0307726,218.396706 46.6770315,218.209077 47.2941137,218.209077 C48.1280086,218.209077 48.6887945,218.434232 48.9764883,218.884549 C49.264182,219.334865 49.4080268,220.135416 49.4080268,221.286224 L49.4080268,224.588529 L48.482408,224.588529 L48.482408,221.311242 C48.482408,220.443966 48.3969351,219.849807 48.2259866,219.528748 C48.0550382,219.207689 47.6902146,219.047162 47.131505,219.047162 C46.8646586,219.047162 46.5832233,219.086773 46.2871906,219.165995 C45.9911579,219.245217 45.763925,219.322354 45.6054849,219.397406 L45.3678261,219.509985 L45.3678261,224.588529 Z M54.3488294,219.147232 L52.36,219.147232 L52.36,222.136818 C52.36,222.853989 52.4121177,223.325146 52.5163545,223.550304 C52.6205914,223.775462 52.8686714,223.88804 53.260602,223.88804 L54.3738462,223.812988 L54.436388,224.588529 C53.8776784,224.68026 53.4523983,224.726125 53.1605351,224.726125 C52.5100971,224.726125 52.0598006,224.567682 51.8096321,224.250793 C51.5594636,223.933904 51.4343813,223.329321 51.4343813,222.437027 L51.4343813,219.147232 L50.5462876,219.147232 L50.5462876,218.334165 L51.4343813,218.334165 L51.4343813,216.420329 L52.36,216.420329 L52.36,218.334165 L54.3488294,218.334165 L54.3488294,219.147232 Z M59.4022074,218.334165 L60.3403344,218.334165 L60.3403344,224.588529 L59.4022074,224.588529 L59.4022074,224.150723 C58.7767862,224.525987 58.1597132,224.713616 57.5509699,224.713616 C56.7003971,224.713616 56.1354418,224.492631 55.856087,224.050653 C55.5767322,223.608676 55.4370569,222.791447 55.4370569,221.598943 L55.4370569,218.334165 L56.3751839,218.334165 L56.3751839,221.586434 C56.3751839,222.495406 56.4544028,223.104158 56.6128428,223.412708 C56.7712828,223.721258 57.1298523,223.875531 57.6885619,223.875531 C57.9637472,223.875531 58.2430978,223.835921 58.5266221,223.756698 C58.8101463,223.677476 59.0269558,223.60034 59.1770569,223.525287 L59.4022074,223.412708 L59.4022074,218.334165 Z M63.0796656,224.588529 L62.1415385,224.588529 L62.1415385,218.334165 L63.0671572,218.334165 L63.0671572,218.77197 C63.6925784,218.396706 64.3013125,218.209077 64.8933779,218.209077 C65.6689002,218.209077 66.2109238,218.421724 66.5194649,218.847022 C66.7946502,218.680239 67.1511349,218.53222 67.5889298,218.402963 C68.0267246,218.273705 68.4123952,218.209077 68.7459532,218.209077 C69.5798481,218.209077 70.140634,218.432147 70.4283278,218.878294 C70.7160215,219.324441 70.8598662,220.127076 70.8598662,221.286224 L70.8598662,224.588529 L69.9217391,224.588529 L69.9217391,221.311242 C69.9217391,220.443966 69.8383509,219.849807 69.6715719,219.528748 C69.5047929,219.207689 69.1503929,219.047162 68.6083612,219.047162 C68.3331759,219.047162 68.0496559,219.086773 67.7577926,219.165995 C67.4659294,219.245217 67.2407812,219.322354 67.0823411,219.397406 L66.8446823,219.509985 C66.9530886,219.785178 67.007291,220.39393 67.007291,221.336259 L67.007291,224.588529 L66.0691639,224.588529 L66.0691639,221.361277 C66.0691639,220.460644 65.9878603,219.849807 65.8252508,219.528748 C65.6626413,219.207689 65.3061566,219.047162 64.755786,219.047162 C64.4889396,219.047162 64.2158431,219.086773 63.9364883,219.165995 C63.6571335,219.245217 63.4424088,219.322354 63.2923077,219.397406 L63.0796656,219.509985 L63.0796656,224.588529 Z M72.548495,221.586434 L72.548495,220.710823 L76.3385284,220.710823 L76.3385284,221.586434 L72.548495,221.586434 Z M79.2029431,221.273716 L79.2029431,224.588529 L78.2397993,224.588529 L78.2397993,215.932489 L81.4419398,215.932489 C82.3592242,215.932489 83.0492619,216.145135 83.5120736,216.570434 C83.9748853,216.995733 84.2062876,217.658689 84.2062876,218.559322 C84.2062876,219.893593 83.6767723,220.731669 82.6177258,221.073576 L84.2813378,224.588529 L83.2181271,224.588529 L81.6545819,221.273716 L79.2029431,221.273716 Z M81.4544482,220.423122 C82.63024,220.423122 83.2181271,219.816455 83.2181271,218.603102 C83.2181271,217.38975 82.6260706,216.783082 81.4419398,216.783082 L79.2029431,216.783082 L79.2029431,220.423122 L81.4544482,220.423122 Z M89.9226087,223.812988 L90.2853512,223.775461 L90.3103679,224.513476 C89.3597277,224.646903 88.5466923,224.713616 87.8712375,224.713616 C86.9706309,224.713616 86.3327109,224.45302 85.9574582,223.93182 C85.5822055,223.410621 85.3945819,222.599646 85.3945819,221.498873 C85.3945819,219.305665 86.2659891,218.209077 88.0088294,218.209077 C88.8510633,218.209077 89.4806445,218.444656 89.897592,218.91582 C90.3145394,219.386985 90.52301,220.127077 90.52301,221.13612 L90.4729766,221.849117 L86.3452174,221.849117 C86.3452174,222.54127 86.4702998,223.054123 86.7204682,223.387691 C86.9706367,223.721259 87.4063403,223.88804 88.027592,223.88804 C88.6488437,223.88804 89.2805096,223.863023 89.9226087,223.812988 Z M89.5848829,221.098594 C89.5848829,220.331388 89.4618853,219.789348 89.2158863,219.472459 C88.9698873,219.155569 88.5696237,218.997127 88.0150836,218.997127 C87.4605435,218.997127 87.0436023,219.163909 86.7642475,219.497476 C86.4848927,219.831044 86.341048,220.364744 86.332709,221.098594 L89.5848829,221.098594 Z M93.950301,219.047162 C93.0413555,219.047162 92.5868896,219.364047 92.5868896,219.997825 C92.5868896,220.289697 92.6911249,220.496089 92.8995987,220.617007 C93.1080724,220.737926 93.5833854,220.863012 94.3255518,220.992269 C95.0677183,221.121527 95.5930642,221.302902 95.9016054,221.536399 C96.2101465,221.769896 96.3644147,222.207698 96.3644147,222.849815 C96.3644147,223.491933 96.1580288,223.963091 95.7452508,224.263302 C95.3324729,224.563513 94.7299928,224.713616 93.9377926,224.713616 C93.4207778,224.713616 92.8120436,224.655242 92.1115719,224.538494 L91.7363211,224.47595 L91.7863545,223.662883 C92.7369947,223.804649 93.4541336,223.875531 93.9377926,223.875531 C94.4214517,223.875531 94.7904447,223.798395 95.0447826,223.64412 C95.2991206,223.489845 95.4262876,223.231333 95.4262876,222.868579 C95.4262876,222.505824 95.3178829,222.259821 95.1010702,222.130564 C94.8842576,222.001306 94.4089446,221.878305 93.6751171,221.761556 C92.9412895,221.644807 92.420113,221.473856 92.1115719,221.248698 C91.8030308,221.02354 91.6487625,220.606587 91.6487625,219.997825 C91.6487625,219.389064 91.8634873,218.938755 92.2929431,218.646883 C92.722399,218.355011 93.2581685,218.209077 93.9002676,218.209077 C94.4089435,218.209077 95.0468635,218.267451 95.8140468,218.3842 L96.1642809,218.446743 L96.1392642,219.247302 C95.2136409,219.113875 94.4839937,219.047162 93.950301,219.047162 Z M97.8028763,224.588529 L97.8028763,218.334165 L98.7410033,218.334165 L98.7410033,224.588529 L97.8028763,224.588529 Z M97.8028763,216.920678 L97.8028763,215.832419 L98.7410033,215.832419 L98.7410033,216.920678 L97.8028763,216.920678 Z M102.50602,219.047162 C101.597075,219.047162 101.142609,219.364047 101.142609,219.997825 C101.142609,220.289697 101.246844,220.496089 101.455318,220.617007 C101.663791,220.737926 102.139104,220.863012 102.881271,220.992269 C103.623437,221.121527 104.148783,221.302902 104.457324,221.536399 C104.765866,221.769896 104.920134,222.207698 104.920134,222.849815 C104.920134,223.491933 104.713748,223.963091 104.30097,224.263302 C103.888192,224.563513 103.285712,224.713616 102.493512,224.713616 C101.976497,224.713616 101.367763,224.655242 100.667291,224.538494 L100.29204,224.47595 L100.342074,223.662883 C101.292714,223.804649 102.009853,223.875531 102.493512,223.875531 C102.977171,223.875531 103.346164,223.798395 103.600502,223.64412 C103.85484,223.489845 103.982007,223.231333 103.982007,222.868579 C103.982007,222.505824 103.873602,222.259821 103.656789,222.130564 C103.439977,222.001306 102.964664,221.878305 102.230836,221.761556 C101.497009,221.644807 100.975832,221.473856 100.667291,221.248698 C100.35875,221.02354 100.204482,220.606587 100.204482,219.997825 C100.204482,219.389064 100.419206,218.938755 100.848662,218.646883 C101.278118,218.355011 101.813888,218.209077 102.455987,218.209077 C102.964663,218.209077 103.602583,218.267451 104.369766,218.3842 L104.72,218.446743 L104.694983,219.247302 C103.76936,219.113875 103.039713,219.047162 102.50602,219.047162 Z M109.598261,219.147232 L107.609431,219.147232 L107.609431,222.136818 C107.609431,222.853989 107.661549,223.325146 107.765786,223.550304 C107.870023,223.775462 108.118103,223.88804 108.510033,223.88804 L109.623278,223.812988 L109.685819,224.588529 C109.12711,224.68026 108.70183,224.726125 108.409967,224.726125 C107.759529,224.726125 107.309232,224.567682 107.059064,224.250793 C106.808895,223.933904 106.683813,223.329321 106.683813,222.437027 L106.683813,219.147232 L105.795719,219.147232 L105.795719,218.334165 L106.683813,218.334165 L106.683813,216.420329 L107.609431,216.420329 L107.609431,218.334165 L109.598261,218.334165 L109.598261,219.147232 Z M115.164482,220.222983 L115.164482,223.425217 C115.189498,223.733767 115.431324,223.917227 115.889967,223.975601 L115.852441,224.713616 C115.193664,224.713616 114.697504,224.546835 114.363946,224.213267 C113.613441,224.546835 112.862947,224.713616 112.112441,224.713616 C111.537054,224.713616 111.099266,224.551004 110.799064,224.225776 C110.498861,223.900547 110.348763,223.433559 110.348763,222.824798 C110.348763,222.216037 110.503031,221.767812 110.811572,221.48011 C111.120113,221.192408 111.603765,221.015202 112.262542,220.948489 L114.226355,220.760858 L114.226355,220.222983 C114.226355,219.797684 114.134627,219.493308 113.951171,219.309845 C113.767714,219.126383 113.517549,219.034653 113.200669,219.034653 C112.533553,219.034653 111.841431,219.076349 111.124281,219.159741 L110.736522,219.197267 L110.698997,218.484269 C111.616281,218.300807 112.429316,218.209077 113.138127,218.209077 C113.846938,218.209077 114.36186,218.371689 114.68291,218.696918 C115.003959,219.022146 115.164482,219.530829 115.164482,220.222983 Z M111.311906,222.774763 C111.311906,223.541969 111.628782,223.925566 112.262542,223.925566 C112.82959,223.925566 113.388292,223.829667 113.938662,223.637865 L114.226355,223.537796 L114.226355,221.473855 L112.375117,221.648978 C111.999864,221.682334 111.728853,221.790742 111.562074,221.974204 C111.395295,222.157667 111.311906,222.424517 111.311906,222.774763 Z M117.953846,224.588529 L117.015719,224.588529 L117.015719,218.334165 L117.941338,218.334165 L117.941338,218.77197 C118.616793,218.396706 119.263052,218.209077 119.880134,218.209077 C120.714029,218.209077 121.274815,218.434232 121.562508,218.884549 C121.850202,219.334865 121.994047,220.135416 121.994047,221.286224 L121.994047,224.588529 L121.068428,224.588529 L121.068428,221.311242 C121.068428,220.443966 120.982955,219.849807 120.812007,219.528748 C120.641058,219.207689 120.276235,219.047162 119.717525,219.047162 C119.450679,219.047162 119.169243,219.086773 118.873211,219.165995 C118.577178,219.245217 118.349945,219.322354 118.191505,219.397406 L117.953846,219.509985 L117.953846,224.588529 Z M126.934849,219.147232 L124.94602,219.147232 L124.94602,222.136818 C124.94602,222.853989 124.998138,223.325146 125.102375,223.550304 C125.206611,223.775462 125.454691,223.88804 125.846622,223.88804 L126.959866,223.812988 L127.022408,224.588529 C126.463698,224.68026 126.038418,224.726125 125.746555,224.726125 C125.096117,224.726125 124.645821,224.567682 124.395652,224.250793 C124.145484,223.933904 124.020401,223.329321 124.020401,222.437027 L124.020401,219.147232 L123.132308,219.147232 L123.132308,218.334165 L124.020401,218.334165 L124.020401,216.420329 L124.94602,216.420329 L124.94602,218.334165 L126.934849,218.334165 L126.934849,219.147232 Z M138.517592,224.588529 L133.751906,224.588529 L133.751906,215.932489 L134.71505,215.932489 L134.71505,223.725426 L138.517592,223.725426 L138.517592,224.588529 Z M143.771104,223.812988 L144.133846,223.775461 L144.158863,224.513476 C143.208223,224.646903 142.395187,224.713616 141.719732,224.713616 C140.819126,224.713616 140.181206,224.45302 139.805953,223.93182 C139.4307,223.410621 139.243077,222.599646 139.243077,221.498873 C139.243077,219.305665 140.114484,218.209077 141.857324,218.209077 C142.699558,218.209077 143.329139,218.444656 143.746087,218.91582 C144.163034,219.386985 144.371505,220.127077 144.371505,221.13612 L144.321472,221.849117 L140.193712,221.849117 C140.193712,222.54127 140.318795,223.054123 140.568963,223.387691 C140.819132,223.721259 141.254835,223.88804 141.876087,223.88804 C142.497339,223.88804 143.129005,223.863023 143.771104,223.812988 Z M143.433378,221.098594 C143.433378,220.331388 143.31038,219.789348 143.064381,219.472459 C142.818382,219.155569 142.418119,218.997127 141.863579,218.997127 C141.309038,218.997127 140.892097,219.163909 140.612742,219.497476 C140.333388,219.831044 140.189543,220.364744 140.181204,221.098594 L143.433378,221.098594 Z M150.638194,215.607262 L150.638194,224.588529 L149.712575,224.588529 L149.712575,224.163232 C149.070476,224.530156 148.436726,224.713616 147.811304,224.713616 C147.477746,224.713616 147.185888,224.671921 146.935719,224.588529 C146.685551,224.505137 146.452064,224.355034 146.235251,224.138214 C145.784948,223.687898 145.559799,222.856076 145.559799,221.642723 C145.559799,220.42937 145.762016,219.553768 146.166455,219.01589 C146.570894,218.478012 147.240085,218.209077 148.174047,218.209077 C148.657706,218.209077 149.170544,218.263281 149.712575,218.371691 L149.712575,215.607262 L150.638194,215.607262 Z M147.38602,223.78797 C147.536121,223.846344 147.729999,223.875531 147.967659,223.875531 C148.205319,223.875531 148.472161,223.835921 148.768194,223.756698 C149.064227,223.677476 149.295629,223.60034 149.462408,223.525287 L149.712575,223.412708 L149.712575,219.172249 C149.178883,219.072179 148.682722,219.022145 148.22408,219.022145 C147.59032,219.022145 147.148362,219.224367 146.898194,219.628818 C146.648026,220.033269 146.522943,220.660784 146.522943,221.511382 C146.522943,222.478728 146.668873,223.129175 146.960736,223.462743 C147.094159,223.621188 147.235919,223.729596 147.38602,223.78797 Z M154.86602,227.52808 C153.865346,227.52808 153.16697,227.39257 152.77087,227.121546 C152.374769,226.850522 152.176722,226.356433 152.176722,225.639262 C152.176722,225.297355 152.251772,225.020081 152.401873,224.807431 C152.551974,224.594782 152.806308,224.355034 153.164883,224.08818 C152.931392,223.929735 152.814649,223.642037 152.814649,223.225077 C152.814649,223.083311 152.918884,222.82063 153.127358,222.437027 L153.239933,222.236888 C152.581156,221.936677 152.251773,221.307077 152.251773,220.34807 C152.251773,218.922068 153.031453,218.209077 154.590836,218.209077 C154.991106,218.209077 155.362183,218.250773 155.70408,218.334165 L155.891706,218.371691 L157.742943,218.321656 L157.742943,219.122214 L156.554649,219.097197 C156.829834,219.37239 156.967425,219.789344 156.967425,220.34807 C156.967425,221.131954 156.773547,221.680248 156.385786,221.992968 C155.998025,222.305687 155.387206,222.462045 154.553311,222.462045 C154.328159,222.462045 154.123858,222.445367 153.940401,222.41201 C153.7903,222.778935 153.715251,223.016598 153.715251,223.125007 C153.715251,223.383522 153.79447,223.54405 153.95291,223.606594 C154.11135,223.669137 154.590832,223.700409 155.391371,223.700409 C156.19191,223.700409 156.767289,223.825495 157.117525,224.075671 C157.467761,224.325847 157.642876,224.813682 157.642876,225.539192 C157.642876,226.865124 156.717267,227.52808 154.86602,227.52808 Z M153.102341,225.564209 C153.102341,226.006187 153.225339,226.312648 153.471338,226.483601 C153.717337,226.654554 154.171803,226.74003 154.834749,226.74003 C155.497696,226.74003 155.973009,226.6483 156.260702,226.464838 C156.548396,226.281376 156.692241,225.974915 156.692241,225.545446 C156.692241,225.115978 156.588006,224.838704 156.379532,224.713616 C156.171058,224.588528 155.762456,224.525985 155.153712,224.525985 L153.802809,224.463441 C153.527624,224.663582 153.342085,224.838702 153.246187,224.988808 C153.150289,225.138913 153.102341,225.330712 153.102341,225.564209 Z M153.521371,221.398803 C153.742353,221.607283 154.107177,221.711521 154.615853,221.711521 C155.124529,221.711521 155.487268,221.607283 155.70408,221.398803 C155.920893,221.190323 156.029298,220.837997 156.029298,220.341815 C156.029298,219.845633 155.920893,219.493308 155.70408,219.284828 C155.487268,219.076348 155.124529,218.97211 154.615853,218.97211 C154.107177,218.97211 153.742353,219.078433 153.521371,219.291082 C153.300389,219.503732 153.1899,219.856057 153.1899,220.34807 C153.1899,220.840082 153.300389,221.190323 153.521371,221.398803 Z M163.134047,223.812988 L163.496789,223.775461 L163.521806,224.513476 C162.571166,224.646903 161.75813,224.713616 161.082676,224.713616 C160.182069,224.713616 159.544149,224.45302 159.168896,223.93182 C158.793644,223.410621 158.60602,222.599646 158.60602,221.498873 C158.60602,219.305665 159.477427,218.209077 161.220268,218.209077 C162.062501,218.209077 162.692083,218.444656 163.10903,218.91582 C163.525978,219.386985 163.734448,220.127077 163.734448,221.13612 L163.684415,221.849117 L159.556656,221.849117 C159.556656,222.54127 159.681738,223.054123 159.931906,223.387691 C160.182075,223.721259 160.617778,223.88804 161.23903,223.88804 C161.860282,223.88804 162.491948,223.863023 163.134047,223.812988 Z M162.796321,221.098594 C162.796321,220.331388 162.673323,219.789348 162.427324,219.472459 C162.181325,219.155569 161.781062,218.997127 161.226522,218.997127 C160.671982,218.997127 160.25504,219.163909 159.975686,219.497476 C159.696331,219.831044 159.552486,220.364744 159.544147,221.098594 L162.796321,221.098594 Z M165.197926,224.588529 L165.197926,218.334165 L166.123545,218.334165 L166.123545,219.184758 C166.849034,218.684406 167.612036,218.355013 168.412575,218.196569 L168.412575,219.147232 C168.062339,219.213945 167.697516,219.318184 167.318094,219.45995 C166.938671,219.601716 166.648897,219.726802 166.448763,219.835212 L166.136054,219.997825 L166.136054,224.588529 L165.197926,224.588529 Z" id="The-Quantum-Resistan"></path>
                <polygon id="Line" fill-rule="nonzero" points="0 208.668329 167.725753 208.668329 167.725753 202.413965 0 202.413965"></polygon>
            </g>
        </g>
    </g>
</svg>